<svg id="Designs" xmlns="http://www.w3.org/2000/svg" xmlns:xlink="http://www.w3.org/1999/xlink" viewBox="0 0 1920 1920"><defs><style>.cls-1{fill:#2b87c8;}.cls-2{fill:url(#linear-gradient);}.cls-3{fill:url(#linear-gradient-2);}.cls-4{fill:url(#linear-gradient-3);}.cls-5{fill:url(#linear-gradient-4);}.cls-6{fill:url(#linear-gradient-5);}.cls-7{fill:url(#linear-gradient-6);}.cls-8{fill:url(#linear-gradient-7);}.cls-9{fill:url(#linear-gradient-8);}.cls-10{fill:url(#linear-gradient-9);}.cls-11{fill:url(#linear-gradient-10);}.cls-12{fill:url(#linear-gradient-11);}.cls-13{fill:url(#linear-gradient-12);}.cls-14{fill:url(#linear-gradient-13);}.cls-15{fill:url(#linear-gradient-14);}.cls-16{fill:url(#linear-gradient-15);}.cls-17{fill:url(#linear-gradient-16);}.cls-18{fill:url(#linear-gradient-17);}.cls-19{fill:url(#linear-gradient-18);}</style><linearGradient id="linear-gradient" x1="1196.88" y1="1200.5" x2="688.41" y2="692.03" gradientUnits="userSpaceOnUse"><stop offset="0" stop-color="#39b54a"/><stop offset="1" stop-color="#1c75bc"/></linearGradient><linearGradient id="linear-gradient-2" x1="1082.29" y1="1315.09" x2="573.82" y2="806.62" xlink:href="#linear-gradient"/><linearGradient id="linear-gradient-3" x1="879.13" y1="1216.75" x2="879.13" y2="966.69" gradientUnits="userSpaceOnUse"><stop offset="0" stop-color="#009444"/><stop offset="1" stop-color="#1c75bc"/></linearGradient><linearGradient id="linear-gradient-4" x1="988.78" y1="1408.6" x2="480.31" y2="900.13" xlink:href="#linear-gradient"/><linearGradient id="linear-gradient-5" x1="836.08" y1="1216.75" x2="836.08" y2="966.69" xlink:href="#linear-gradient-3"/><linearGradient id="linear-gradient-6" x1="1293.46" y1="1103.92" x2="784.99" y2="595.45" xlink:href="#linear-gradient"/><linearGradient id="linear-gradient-7" x1="981.38" y1="1216.75" x2="981.38" y2="966.69" xlink:href="#linear-gradient-3"/><linearGradient id="linear-gradient-8" x1="1309.37" y1="1088.01" x2="800.9" y2="579.54" xlink:href="#linear-gradient"/><linearGradient id="linear-gradient-9" x1="1083.68" y1="1216.75" x2="1083.68" y2="966.69" xlink:href="#linear-gradient-3"/><linearGradient id="linear-gradient-10" x1="1244.25" y1="1153.14" x2="735.78" y2="644.67" xlink:href="#linear-gradient"/><linearGradient id="linear-gradient-11" x1="1126.69" y1="1216.75" x2="1126.69" y2="966.69" xlink:href="#linear-gradient-3"/><linearGradient id="linear-gradient-12" x1="638.13" y1="359.95" x2="1583.13" y2="1304.95" gradientUnits="userSpaceOnUse"><stop offset="0" stop-color="#8dc63f"/><stop offset="1" stop-color="#00aeef"/></linearGradient><linearGradient id="linear-gradient-13" x1="476.15" y1="521.93" x2="1421.15" y2="1466.93" xlink:href="#linear-gradient-12"/><linearGradient id="linear-gradient-14" x1="289.14" y1="708.94" x2="1234.13" y2="1653.94" xlink:href="#linear-gradient-12"/><linearGradient id="linear-gradient-15" x1="731.63" y1="266.45" x2="1676.63" y2="1211.45" xlink:href="#linear-gradient-12"/><linearGradient id="linear-gradient-16" x1="731.58" y1="266.5" x2="1676.58" y2="1211.5" xlink:href="#linear-gradient-12"/><linearGradient id="linear-gradient-17" x1="188.63" y1="809.45" x2="1133.63" y2="1754.44" xlink:href="#linear-gradient-12"/><linearGradient id="linear-gradient-18" x1="526.74" y1="471.34" x2="1471.74" y2="1416.34" xlink:href="#linear-gradient-12"/></defs><path class="cls-1" d="M913.82,1062.35a89.19,89.19,0,0,0-20,36.31,525.1,525.1,0,0,1-49.37-121.8A519.7,519.7,0,0,1,913.82,1062.35Z"/><path class="cls-2" d="M981.47,940v.09a526.39,526.39,0,0,0-16.37,93.59,89.54,89.54,0,0,0-51.28,28.64,519.7,519.7,0,0,0-69.39-85.49h-.08a531.13,531.13,0,0,1,.17-273.64A532.26,532.26,0,0,1,981.47,940Z"/><path class="cls-1" d="M913.82,1062.35a89.19,89.19,0,0,0-20,36.31,525.1,525.1,0,0,1-49.37-121.8A519.7,519.7,0,0,1,913.82,1062.35Z"/><path class="cls-3" d="M893.71,1098.92a89.26,89.26,0,0,0-3.31,24.29,84.78,84.78,0,0,0,2.18,19.5,520.58,520.58,0,0,0-148.44-65.47h-.09A531.51,531.51,0,0,1,607.27,840.08,530.76,530.76,0,0,1,844.35,976.86h.08a525.1,525.1,0,0,0,49.37,121.8C893.8,1098.74,893.71,1098.83,893.71,1098.92Z"/><path class="cls-4" d="M913.82,1062.35a89.19,89.19,0,0,0-20,36.31,525.1,525.1,0,0,1-49.37-121.8A519.7,519.7,0,0,1,913.82,1062.35Z"/><path class="cls-5" d="M981.38,1214.19c-152.18,40.74-306.46,10.88-428.35-69.56-1.3-.87-2.69-1.74-4-2.7a513.66,513.66,0,0,1-50.5-38.57c-9.66-8.36-19-17-28-26,5.57-1.48,11.23-2.88,16.8-4.27a532.8,532.8,0,0,1,120.15-13.76,525.68,525.68,0,0,1,136.6,17.94h.09c4,4,8,7.92,12.1,11.75A522,522,0,0,0,928,1196.78c0,.08,0,.08.09.08A90.23,90.23,0,0,0,981.38,1214.19Z"/><path class="cls-6" d="M928,1196.78A525,525,0,0,1,756.24,1089c-4.09-3.83-8.1-7.75-12.1-11.75a520.58,520.58,0,0,1,148.44,65.47,89.32,89.32,0,0,0,12.62,30.21A93.08,93.08,0,0,0,928,1196.78Z"/><path class="cls-7" d="M1136.27,840.26a528.83,528.83,0,0,1-17.85,136.51v.09a520.89,520.89,0,0,0-69.48,85.58,89.88,89.88,0,0,0-51.28-28.73,525.23,525.23,0,0,0-16.19-93.59V940a530.51,530.51,0,0,1,136.86-236.81A533.87,533.87,0,0,1,1136.27,840.26Z"/><path class="cls-8" d="M997.66,1033.71a90.28,90.28,0,0,0-32.56,0,526.39,526.39,0,0,1,16.37-93.59A525.23,525.23,0,0,1,997.66,1033.71Z"/><path class="cls-9" d="M1355.4,840.17a531.58,531.58,0,0,1-136.77,237.07,523.09,523.09,0,0,0-148.44,65.47,84.78,84.78,0,0,0,2.17-19.5,89.65,89.65,0,0,0-3.3-24.29c0-.09-.09-.26-.09-.35a522.63,522.63,0,0,0,49.45-121.71v-.09A531.84,531.84,0,0,1,1355.4,840.17Z"/><path class="cls-10" d="M1118.42,976.86A522.63,522.63,0,0,1,1069,1098.57a89.47,89.47,0,0,0-20-36.13A520.89,520.89,0,0,1,1118.42,976.86Z"/><path class="cls-11" d="M1492.27,1077.24c-1.83,1.83-3.66,3.66-5.49,5.31-7.31,7.31-14.89,14.1-22.63,20.81-7,6.09-14.2,12-21.51,17.67-3,2.27-5.92,4.44-8.88,6.62-6.62,5-13.32,9.75-20.11,14.28-122.41,82.45-278.51,113.44-432.27,72.26a90.24,90.24,0,0,0,53.29-17.33c.08,0,.08,0,.08-.08a525.59,525.59,0,0,0,183.88-119.54A531.13,531.13,0,0,1,1492.27,1077.24Z"/><path class="cls-12" d="M1218.63,1077.24a525.59,525.59,0,0,1-183.88,119.54,92.6,92.6,0,0,0,22.73-23.86,87.91,87.91,0,0,0,12.71-30.21A523.09,523.09,0,0,1,1218.63,1077.24Z"/><path class="cls-13" d="M844.48,703.25A531.31,531.31,0,0,1,981.43,940.07a531.08,531.08,0,0,1,136.88-236.82A525.87,525.87,0,0,0,981.36,466.38,526.27,526.27,0,0,0,844.48,703.25Z"/><path class="cls-14" d="M607.27,840.07A530.87,530.87,0,0,1,844.35,976.88a531.31,531.31,0,0,1,.13-273.63,526.06,526.06,0,0,0-237-136.68A526.45,526.45,0,0,0,607.27,840.07Z"/><path class="cls-15" d="M333.78,840.27a526,526,0,0,0,136.68,237,530.52,530.52,0,0,1,273.63-.07A531.15,531.15,0,0,1,607.27,840.07a526.17,526.17,0,0,0-273.49.2Z"/><path class="cls-16" d="M1355.25,566.57a525.45,525.45,0,0,0-236.94,136.68,531.17,531.17,0,0,1,.13,273.5,532,532,0,0,1,236.94-136.62A525.82,525.82,0,0,0,1355.25,566.57Z"/><path class="cls-17" d="M1491.8,822.09a525.36,525.36,0,0,0-136.42,18,531.12,531.12,0,0,1-136.74,237.08,530.41,530.41,0,0,1,273.62.07,526.09,526.09,0,0,0,136.75-237A529.25,529.25,0,0,0,1491.8,822.09Z"/><path class="cls-18" d="M816.46,1326.06A186.11,186.11,0,0,0,784.73,1314q-5.44-1.4-10.7-2.78C652,1279,576.27,1221,531.07,1170.87a15.57,15.57,0,0,1-4-4.49,17.17,17.17,0,0,1,22-24.46,516.17,516.17,0,0,1-50.49-38.53c-9.65-8.39-19-17.05-28.09-26.11.92,6.48,24.12,156.25,142.1,273a451.48,451.48,0,0,0,148.71,97.82C840,1480.12,892.73,1363.47,816.46,1326.06Z"/><path class="cls-19" d="M1413.68,1141.92a17.17,17.17,0,0,1,22,24.46,15.68,15.68,0,0,1-4,4.49c-45.21,50.17-120.89,108.13-243,140.32-3.51.93-7.07,1.85-10.71,2.78a186.43,186.43,0,0,0-31.73,12.09c-76.27,37.41-23.52,154.06,55.19,122.08a451.48,451.48,0,0,0,148.71-97.82c118-116.79,141.18-266.56,142.1-273-9,9.06-18.44,17.72-28.09,26.11A516.17,516.17,0,0,1,1413.68,1141.92Z"/></svg>