<svg id="Designs" xmlns="http://www.w3.org/2000/svg" xmlns:xlink="http://www.w3.org/1999/xlink" viewBox="0 0 1920 1920"><defs><style>.cls-1{fill:url(#linear-gradient);}.cls-2{fill:url(#linear-gradient-2);}.cls-3{fill:url(#linear-gradient-3);}.cls-4{fill:url(#linear-gradient-4);}.cls-5{fill:url(#linear-gradient-5);}.cls-6{fill:url(#linear-gradient-6);}.cls-7{fill:url(#linear-gradient-7);}.cls-8{fill:url(#linear-gradient-8);}.cls-9{fill:url(#linear-gradient-9);}</style><linearGradient id="linear-gradient" x1="261.79" y1="926.24" x2="1699.75" y2="999.78" gradientUnits="userSpaceOnUse"><stop offset="0" stop-color="#8dc63f"/><stop offset="1" stop-color="#00aeef"/></linearGradient><linearGradient id="linear-gradient-2" x1="261.35" y1="934.87" x2="1699.31" y2="1008.41" xlink:href="#linear-gradient"/><linearGradient id="linear-gradient-3" x1="262.65" y1="909.35" x2="1700.61" y2="982.88" xlink:href="#linear-gradient"/><linearGradient id="linear-gradient-4" x1="262.35" y1="915.39" x2="1700.3" y2="988.92" xlink:href="#linear-gradient"/><linearGradient id="linear-gradient-5" x1="262.77" y1="907.18" x2="1700.72" y2="980.71" xlink:href="#linear-gradient"/><linearGradient id="linear-gradient-6" x1="264.16" y1="879.84" x2="1702.12" y2="953.37" xlink:href="#linear-gradient"/><linearGradient id="linear-gradient-7" x1="264.65" y1="870.3" x2="1702.61" y2="943.83" xlink:href="#linear-gradient"/><linearGradient id="linear-gradient-8" x1="263.63" y1="890.3" x2="1701.59" y2="963.84" xlink:href="#linear-gradient"/><linearGradient id="linear-gradient-9" x1="264.15" y1="880.18" x2="1702.1" y2="953.71" xlink:href="#linear-gradient"/></defs><path class="cls-1" d="M311.18,1007.89V852h45.44v155.92Z"/><path class="cls-2" d="M390.69,1007.89V884.49h43.88v19.6C445,888.72,463.3,880,485.35,880c35.86,0,55.24,22.94,55.24,55.24v72.61H496.71V938.17c0-16-9.13-25.39-25.83-25.39-14.48,0-26.95,6.91-36.31,22.05v73.06Z"/><path class="cls-3" d="M757.31,852v155.92H711.88V947.53H618.33v60.36H572.89V852h45.44v58.14h93.55V852Z"/><path class="cls-4" d="M869.12,981.83c19.6,0,31.41-4.68,43.66-14l22.27,23.39c-17.59,15.59-40.31,21.83-68.38,21.83-52.34,0-82.85-25.39-82.85-66.82s30.07-66.82,79.51-66.82c44.55,0,76.18,22.27,76.18,65.93,0,4.9-.22,7.8-1.12,10.24H825.69C829.25,974.25,844.18,981.83,869.12,981.83ZM826.8,931.94l72.17-.45c-4.68-14.48-16.48-21.38-35.19-21.38C844.85,910.11,831.71,917,826.8,931.94Z"/><path class="cls-5" d="M1104.11,938.62V984.5c0,8.91,1.56,16.26,5.34,23.39h-44.54c-2.45-3.79-4.24-8.47-4.24-12.7V995c-9.35,9.8-26.5,17.37-48.33,17.37-26.06,0-59.25-10.24-59.25-41.87s33.19-41.88,59.25-41.88c21.83,0,39,7.58,48.33,17.6v-8c0-18.71-13.8-27.62-40.75-27.62-14.71,0-29.18,2-44.33,9.58l-10-27.84c16.7-8,42.1-12.7,63.48-12.7C1076,879.59,1104.11,900.53,1104.11,938.62Zm-42.54,30.51c-8.47-11.8-24.06-14.92-36.75-14.92-12.48,0-29.18,3.12-29.18,16.26s16.7,16.26,29.18,16.26c12.69,0,28.28-3.12,36.75-15.15Z"/><path class="cls-6" d="M1134.62,1007.89V843.06h44.1v164.83Z"/><path class="cls-7" d="M1206.79,851.31c0-12.48,10.46-20.72,25.39-20.72,14.7,0,25.17,8.24,25.17,20.72S1246.88,872,1232.18,872C1217.25,872,1206.79,863.78,1206.79,851.31Zm47.66,156.58h-44.1V884.49h44.1Z"/><path class="cls-8" d="M1277.84,946.19c0-41.43,31.18-66.6,80.85-66.6,49.45,0,80.63,25.17,80.63,66.6,0,41.21-31.18,66.82-80.63,66.82C1309,1013,1277.84,987.4,1277.84,946.19Zm119.6,0c0-21.83-16.26-33-38.75-33s-38.76,11.13-38.76,33c0,21.6,16.26,33,38.76,33S1397.44,967.79,1397.44,946.19Z"/><path class="cls-9" d="M1463.15,1007.89V884.49H1507v19.6c10.47-15.37,28.73-24.05,50.78-24.05,35.86,0,55.24,22.94,55.24,55.24v72.61h-43.88V938.17c0-16-9.13-25.39-25.84-25.39-14.47,0-26.95,6.91-36.3,22.05v73.06Z"/></svg>