<svg id="Designs" xmlns="http://www.w3.org/2000/svg" viewBox="0 0 1920 1920"><defs><style>.cls-1{fill:#231f20;}.cls-2{fill:#fff;}.cls-3{fill:#2b87c8;}.cls-4{fill:#cccccb;}.cls-5{fill:#999;}</style></defs><rect class="cls-1" width="1920" height="1920"/><path class="cls-2" d="M454.48,1331V1212.25h34.61V1331Z"/><path class="cls-2" d="M515.05,1331v-94h33.43V1252c8-11.71,21.89-18.33,38.69-18.33,27.31,0,42.08,17.48,42.08,42.08V1331H595.82v-53.11c0-12.22-7-19.34-19.68-19.34-11,0-20.53,5.25-27.66,16.79V1331Z"/><path class="cls-2" d="M794.35,1212.25V1331H759.73v-46H688.47v46H653.85V1212.25h34.62v44.29h71.26v-44.29Z"/><path class="cls-2" d="M879.53,1311.17c14.93,0,23.93-3.56,33.26-10.68l17,17.81c-13.41,11.88-30.72,16.63-52.1,16.63-39.87,0-63.12-19.34-63.12-50.9s22.91-50.91,60.58-50.91c33.93,0,58,17,58,50.23,0,3.73-.17,5.94-.85,7.8H846.44C849.16,1305.41,860.53,1311.17,879.53,1311.17Zm-32.24-38,55-.34c-3.57-11-12.56-16.29-26.81-16.29C861,1256.54,851,1261.8,847.29,1273.17Z"/><path class="cls-2" d="M1058.55,1278.26v35c0,6.79,1.18,12.39,4.07,17.82h-33.94a18.87,18.87,0,0,1-3.22-9.67v-.17c-7.13,7.46-20.19,13.23-36.82,13.23-19.85,0-45.14-7.8-45.14-31.9s25.29-31.9,45.14-31.9c16.63,0,29.69,5.77,36.82,13.41v-6.11c0-14.25-10.52-21-31.05-21-11.2,0-22.23,1.53-33.77,7.29L953,1243c12.72-6.1,32.07-9.67,48.35-9.67C1037.17,1233.29,1058.55,1249.24,1058.55,1278.26Zm-32.41,23.24c-6.45-9-18.33-11.37-28-11.37-9.5,0-22.23,2.38-22.23,12.39s12.73,12.39,22.23,12.39c9.67,0,21.55-2.38,28-11.54Z"/><path class="cls-2" d="M1081.79,1331V1205.47h33.6V1331Z"/><path class="cls-2" d="M1136.77,1211.74c0-9.5,8-15.78,19.35-15.78,11.19,0,19.17,6.28,19.17,15.78s-8,15.78-19.17,15.78C1144.75,1227.52,1136.77,1221.25,1136.77,1211.74ZM1173.08,1331h-33.59v-94h33.59Z"/><path class="cls-2" d="M1190.9,1284c0-31.56,23.76-50.74,61.59-50.74,37.67,0,61.43,19.18,61.43,50.74,0,31.39-23.76,50.9-61.43,50.9C1214.66,1334.93,1190.9,1315.42,1190.9,1284Zm91.12,0c0-16.63-12.39-25.12-29.53-25.12S1223,1267.4,1223,1284c0,16.46,12.39,25.11,29.52,25.11S1282,1300.49,1282,1284Z"/><path class="cls-2" d="M1332.08,1331v-94h33.42V1252c8-11.71,21.89-18.33,38.69-18.33,27.32,0,42.08,17.48,42.08,42.08V1331h-33.43v-53.11c0-12.22-6.95-19.34-19.68-19.34-11,0-20.53,5.25-27.66,16.79V1331Z"/><path class="cls-3" d="M907.44,880.48a54.55,54.55,0,0,0-12.24,22.2A321.46,321.46,0,0,1,865,828.2,318,318,0,0,1,907.44,880.48Z"/><path class="cls-4" d="M948.81,805.68v.05a322.53,322.53,0,0,0-10,57.23,54.8,54.8,0,0,0-31.36,17.52A318,318,0,0,0,865,828.2h0a324.82,324.82,0,0,1,.1-167.34A325.46,325.46,0,0,1,948.81,805.68Z"/><path class="cls-3" d="M907.44,880.48a54.55,54.55,0,0,0-12.24,22.2A321.46,321.46,0,0,1,865,828.2,318,318,0,0,1,907.44,880.48Z"/><path class="cls-4" d="M895.14,902.84a54.72,54.72,0,0,0-2,14.85,52.13,52.13,0,0,0,1.33,11.93,318.31,318.31,0,0,0-90.77-40h-.06a325.07,325.07,0,0,1-83.64-145A324.49,324.49,0,0,1,865,828.2h0a321.46,321.46,0,0,0,30.19,74.48C895.2,902.73,895.14,902.79,895.14,902.84Z"/><path class="cls-5" d="M907.44,880.48a54.55,54.55,0,0,0-12.24,22.2A321.46,321.46,0,0,1,865,828.2,318,318,0,0,1,907.44,880.48Z"/><path class="cls-4" d="M948.76,973.33a322.54,322.54,0,0,1-262-42.54c-.79-.53-1.65-1.06-2.45-1.65a313,313,0,0,1-30.87-23.59c-5.91-5.11-11.61-10.38-17.15-15.91,3.41-.91,6.87-1.76,10.28-2.61a325.75,325.75,0,0,1,73.47-8.41,321.88,321.88,0,0,1,83.53,11h.06c2.45,2.45,4.9,4.85,7.4,7.19a319.12,319.12,0,0,0,105,65.91c0,.06,0,.06,0,.06A55.25,55.25,0,0,0,948.76,973.33Z"/><path class="cls-5" d="M916.12,962.68a320.92,320.92,0,0,1-105-65.91c-2.5-2.34-5-4.74-7.4-7.19a318.31,318.31,0,0,1,90.77,40,54.62,54.62,0,0,0,7.72,18.47A56.76,56.76,0,0,0,916.12,962.68Z"/><path class="cls-4" d="M1043.47,744.66a323.6,323.6,0,0,1-10.91,83.48v.06a318.67,318.67,0,0,0-42.49,52.33A54.93,54.93,0,0,0,958.71,863a321.46,321.46,0,0,0-9.9-57.23v-.05a324.43,324.43,0,0,1,83.7-144.82A326.72,326.72,0,0,1,1043.47,744.66Z"/><path class="cls-5" d="M958.71,863a55.51,55.51,0,0,0-19.91,0,322.53,322.53,0,0,1,10-57.23A321.46,321.46,0,0,1,958.71,863Z"/><path class="cls-4" d="M1177.48,744.61a325,325,0,0,1-83.64,145,319.76,319.76,0,0,0-90.78,40,51.58,51.58,0,0,0,1.33-11.93,54.72,54.72,0,0,0-2-14.85c0-.05,0-.16,0-.21a320,320,0,0,0,30.24-74.43v-.06A325.17,325.17,0,0,1,1177.48,744.61Z"/><path class="cls-5" d="M1032.56,828.2a320,320,0,0,1-30.24,74.43,54.66,54.66,0,0,0-12.25-22.1A318.67,318.67,0,0,1,1032.56,828.2Z"/><path class="cls-4" d="M1261.17,889.58c-1.11,1.12-2.23,2.24-3.35,3.25-4.47,4.47-9.1,8.63-13.84,12.72-4.26,3.73-8.68,7.35-13.15,10.81-1.81,1.39-3.62,2.72-5.43,4-4.05,3-8.15,6-12.3,8.73a322.53,322.53,0,0,1-264.34,44.19,55.22,55.22,0,0,0,32.58-10.59s0,0,0-.06a321.36,321.36,0,0,0,112.45-73.1A324.78,324.78,0,0,1,1261.17,889.58Z"/><path class="cls-5" d="M1093.84,889.58a321.36,321.36,0,0,1-112.45,73.1,56.4,56.4,0,0,0,13.9-14.59,53.53,53.53,0,0,0,7.77-18.47A319.76,319.76,0,0,1,1093.84,889.58Z"/><path class="cls-2" d="M865,660.88A325,325,0,0,1,948.79,805.7a324.81,324.81,0,0,1,83.7-144.82A321.52,321.52,0,0,0,948.74,516,321.87,321.87,0,0,0,865,660.88Z"/><path class="cls-2" d="M720,744.55a324.67,324.67,0,0,1,145,83.66A324.89,324.89,0,0,1,865,660.88,321.69,321.69,0,0,0,720.1,577.3,321.86,321.86,0,0,0,720,744.55Z"/><path class="cls-2" d="M552.73,744.67a321.76,321.76,0,0,0,83.59,144.94,324.24,324.24,0,0,1,167.33,0,324.78,324.78,0,0,1-83.67-145,321.68,321.68,0,0,0-167.25.12Z"/><path class="cls-2" d="M1177.39,577.3a321.34,321.34,0,0,0-144.9,83.58,324.8,324.8,0,0,1,.08,167.25,325.3,325.3,0,0,1,144.9-83.54A321.79,321.79,0,0,0,1177.39,577.3Z"/><path class="cls-2" d="M1260.89,733.55a321,321,0,0,0-83.42,11,324.79,324.79,0,0,1-83.63,145,324.24,324.24,0,0,1,167.33,0,321.82,321.82,0,0,0,83.63-144.94A323.8,323.8,0,0,0,1260.89,733.55Z"/><path class="cls-2" d="M847.9,1041.74a114.35,114.35,0,0,0-19.4-7.39l-6.55-1.7C747.3,1013,701,977.52,673.38,946.84a9.6,9.6,0,0,1-2.47-2.75,10.5,10.5,0,0,1,13.46-15,319.45,319.45,0,0,1-30.88-23.56c-5.9-5.14-11.64-10.43-17.17-16,.56,4,14.75,95.55,86.89,167a276,276,0,0,0,90.94,59.81C862.29,1136,894.54,1064.62,847.9,1041.74Z"/><path class="cls-2" d="M1213.12,929.14a10.36,10.36,0,0,1,4.48-1,10.49,10.49,0,0,1,9,16,9.43,9.43,0,0,1-2.46,2.75c-27.65,30.68-73.92,66.12-148.58,85.81l-6.54,1.7a114.35,114.35,0,0,0-19.4,7.39c-46.65,22.88-14.39,94.21,33.75,74.65a275.87,275.87,0,0,0,90.93-59.81c72.15-71.42,86.34-163,86.9-167-5.53,5.54-11.27,10.83-17.18,16A318.1,318.1,0,0,1,1213.12,929.14Z"/></svg>