<svg id="Designs" xmlns="http://www.w3.org/2000/svg" viewBox="0 0 1920 1920"><defs><style>.cls-1{fill:#2b87c8;}.cls-2{fill:#5d6162;}.cls-3{fill:#2b2e31;}.cls-4{fill:#8e9192;}</style></defs><path class="cls-1" d="M881.19,1062.35a89.19,89.19,0,0,0-20,36.31,525.1,525.1,0,0,1-49.37-121.8A519.7,519.7,0,0,1,881.19,1062.35Z"/><path class="cls-2" d="M948.84,940v.09a526.39,526.39,0,0,0-16.37,93.59,89.54,89.54,0,0,0-51.28,28.64,519.7,519.7,0,0,0-69.39-85.49h-.08a531.13,531.13,0,0,1,.17-273.64A532.26,532.26,0,0,1,948.84,940Z"/><path class="cls-1" d="M881.19,1062.35a89.19,89.19,0,0,0-20,36.31,525.1,525.1,0,0,1-49.37-121.8A519.7,519.7,0,0,1,881.19,1062.35Z"/><path class="cls-2" d="M861.08,1098.92a89.26,89.26,0,0,0-3.31,24.29,84.78,84.78,0,0,0,2.18,19.5,520.58,520.58,0,0,0-148.44-65.47h-.09A531.51,531.51,0,0,1,574.64,840.08,530.76,530.76,0,0,1,811.72,976.86h.08a525.1,525.1,0,0,0,49.37,121.8C861.17,1098.74,861.08,1098.83,861.08,1098.92Z"/><path class="cls-3" d="M881.19,1062.35a89.19,89.19,0,0,0-20,36.31,525.1,525.1,0,0,1-49.37-121.8A519.7,519.7,0,0,1,881.19,1062.35Z"/><path class="cls-2" d="M948.75,1214.19c-152.18,40.74-306.46,10.88-428.35-69.56-1.3-.87-2.69-1.74-4-2.7a513.66,513.66,0,0,1-50.5-38.57c-9.66-8.36-19-17-28-26,5.57-1.48,11.23-2.88,16.8-4.27a532.8,532.8,0,0,1,120.15-13.76,525.68,525.68,0,0,1,136.6,17.94h.09c4,4,8,7.92,12.1,11.75a522,522,0,0,0,171.77,107.79c0,.08,0,.08.09.08A90.23,90.23,0,0,0,948.75,1214.19Z"/><path class="cls-3" d="M895.38,1196.78A525,525,0,0,1,723.61,1089c-4.09-3.83-8.1-7.75-12.1-11.75A520.58,520.58,0,0,1,860,1142.71a89.32,89.32,0,0,0,12.62,30.21A93.08,93.08,0,0,0,895.38,1196.78Z"/><path class="cls-2" d="M1103.64,840.26a528.83,528.83,0,0,1-17.85,136.51v.09a520.89,520.89,0,0,0-69.48,85.58A89.88,89.88,0,0,0,965,1033.71a525.23,525.23,0,0,0-16.19-93.59V940A530.51,530.51,0,0,1,1085.7,703.22,533.87,533.87,0,0,1,1103.64,840.26Z"/><path class="cls-3" d="M965,1033.71a90.28,90.28,0,0,0-32.56,0,526.39,526.39,0,0,1,16.37-93.59A525.23,525.23,0,0,1,965,1033.71Z"/><path class="cls-2" d="M1322.77,840.17A531.58,531.58,0,0,1,1186,1077.24a523.09,523.09,0,0,0-148.44,65.47,84.78,84.78,0,0,0,2.17-19.5,89.65,89.65,0,0,0-3.3-24.29c0-.09-.09-.26-.09-.35a522.63,522.63,0,0,0,49.45-121.71v-.09A531.89,531.89,0,0,1,1322.77,840.17Z"/><path class="cls-3" d="M1085.79,976.86a522.63,522.63,0,0,1-49.45,121.71,89.47,89.47,0,0,0-20-36.13A520.89,520.89,0,0,1,1085.79,976.86Z"/><path class="cls-2" d="M1459.64,1077.24c-1.83,1.83-3.66,3.66-5.49,5.31-7.31,7.31-14.89,14.1-22.63,20.81-7,6.09-14.19,12-21.51,17.67-3,2.27-5.92,4.44-8.88,6.62-6.62,5-13.32,9.75-20.11,14.28-122.41,82.45-278.51,113.44-432.27,72.26a90.24,90.24,0,0,0,53.29-17.33c.08,0,.08,0,.08-.08A525.59,525.59,0,0,0,1186,1077.24,531.13,531.13,0,0,1,1459.64,1077.24Z"/><path class="cls-3" d="M1186,1077.24a525.59,525.59,0,0,1-183.88,119.54,92.6,92.6,0,0,0,22.73-23.86,87.91,87.91,0,0,0,12.71-30.21A523.09,523.09,0,0,1,1186,1077.24Z"/><path class="cls-4" d="M811.85,703.25A531.31,531.31,0,0,1,948.8,940.07a531.08,531.08,0,0,1,136.88-236.82,525.87,525.87,0,0,0-137-236.87A526.36,526.36,0,0,0,811.85,703.25Z"/><path class="cls-4" d="M574.64,840.07A530.87,530.87,0,0,1,811.72,976.88a531.31,531.31,0,0,1,.13-273.63,526.06,526.06,0,0,0-237-136.68A526.45,526.45,0,0,0,574.64,840.07Z"/><path class="cls-4" d="M301.15,840.27a526.06,526.06,0,0,0,136.68,237,530.52,530.52,0,0,1,273.63-.07A531.15,531.15,0,0,1,574.64,840.07a526.17,526.17,0,0,0-273.49.2Z"/><path class="cls-4" d="M1322.62,566.57a525.45,525.45,0,0,0-236.94,136.68,531.17,531.17,0,0,1,.13,273.5,532,532,0,0,1,236.94-136.62A525.82,525.82,0,0,0,1322.62,566.57Z"/><path class="cls-4" d="M1459.17,822.09a525.42,525.42,0,0,0-136.42,18A531.12,531.12,0,0,1,1186,1077.21a530.41,530.41,0,0,1,273.62.07,526.09,526.09,0,0,0,136.75-237A529.25,529.25,0,0,0,1459.17,822.09Z"/><path class="cls-4" d="M783.83,1326.06A186.11,186.11,0,0,0,752.1,1314q-5.45-1.4-10.7-2.78c-122.08-32.19-197.76-90.15-243-140.32a15.57,15.57,0,0,1-4-4.49,17.17,17.17,0,0,1,22-24.46,516.17,516.17,0,0,1-50.49-38.53c-9.65-8.39-19-17.05-28.09-26.11.92,6.48,24.12,156.25,142.1,273a451.48,451.48,0,0,0,148.71,97.82C807.36,1480.12,860.1,1363.47,783.83,1326.06Z"/><path class="cls-4" d="M1381.05,1141.92a17.17,17.17,0,0,1,22,24.46,15.68,15.68,0,0,1-4,4.49c-45.21,50.17-120.89,108.13-243,140.32-3.51.93-7.07,1.85-10.71,2.78a186.43,186.43,0,0,0-31.73,12.09c-76.27,37.41-23.52,154.06,55.19,122.08a451.48,451.48,0,0,0,148.71-97.82c118-116.79,141.18-266.56,142.1-273-9.05,9.06-18.44,17.72-28.09,26.11A516.17,516.17,0,0,1,1381.05,1141.92Z"/></svg>