<svg id="Designs" xmlns="http://www.w3.org/2000/svg" viewBox="0 0 1920 1920"><path d="M311.18,1007.89V852h45.44v155.92Z"/><path d="M390.69,1007.89V884.49h43.88v19.6C445,888.72,463.3,880,485.35,880c35.86,0,55.24,22.94,55.24,55.24v72.61H496.71V938.17c0-16-9.13-25.39-25.83-25.39-14.48,0-26.95,6.91-36.31,22.05v73.06Z"/><path d="M757.31,852v155.92H711.88V947.53H618.33v60.36H572.89V852h45.44v58.14h93.55V852Z"/><path d="M869.12,981.83c19.6,0,31.41-4.68,43.66-14l22.27,23.39c-17.59,15.59-40.31,21.83-68.38,21.83-52.34,0-82.85-25.39-82.85-66.82s30.07-66.82,79.51-66.82c44.55,0,76.18,22.27,76.18,65.93,0,4.9-.22,7.8-1.12,10.24H825.69C829.26,974.25,844.18,981.83,869.12,981.83Zm-42.31-49.89,72.16-.45c-4.68-14.48-16.48-21.38-35.19-21.38C844.85,910.11,831.71,917,826.81,931.94Z"/><path d="M1104.11,938.62V984.5c0,8.91,1.56,16.26,5.34,23.39h-44.54c-2.45-3.79-4.23-8.47-4.23-12.7V995c-9.36,9.8-26.51,17.37-48.34,17.37-26.06,0-59.24-10.24-59.24-41.87s33.18-41.88,59.24-41.88c21.83,0,39,7.58,48.34,17.6v-8c0-18.71-13.81-27.62-40.76-27.62-14.71,0-29.18,2-44.33,9.58l-10-27.84c16.7-8,42.1-12.7,63.48-12.7C1076,879.59,1104.11,900.53,1104.11,938.62Zm-42.54,30.51c-8.47-11.8-24.06-14.92-36.75-14.92-12.48,0-29.18,3.12-29.18,16.26s16.7,16.26,29.18,16.26c12.69,0,28.28-3.12,36.75-15.15Z"/><path d="M1134.62,1007.89V843.06h44.1v164.83Z"/><path d="M1206.79,851.31c0-12.48,10.47-20.72,25.39-20.72,14.7,0,25.17,8.24,25.17,20.72S1246.88,872,1232.18,872C1217.26,872,1206.79,863.78,1206.79,851.31Zm47.66,156.58h-44.1V884.49h44.1Z"/><path d="M1277.84,946.19c0-41.43,31.18-66.6,80.85-66.6,49.45,0,80.63,25.17,80.63,66.6,0,41.21-31.18,66.82-80.63,66.82C1309,1013,1277.84,987.4,1277.84,946.19Zm119.6,0c0-21.83-16.25-33-38.75-33s-38.76,11.13-38.76,33c0,21.6,16.26,33,38.76,33S1397.44,967.79,1397.44,946.19Z"/><path d="M1463.15,1007.89V884.49H1507v19.6c10.47-15.37,28.73-24.05,50.78-24.05,35.86,0,55.24,22.94,55.24,55.24v72.61h-43.88V938.17c0-16-9.13-25.39-25.84-25.39-14.47,0-26.95,6.91-36.3,22.05v73.06Z"/></svg>